<svg width="185" height="184" viewBox="0 0 185 184" fill="none" xmlns="http://www.w3.org/2000/svg">
<path d="M110.861 20.8535L137.784 12.1934L143.904 39.8174L171.562 45.7793L163.042 72.7559L184.011 91.7461L163.138 110.851L171.802 137.777L144.193 143.918L138.221 171.555L111.24 163.04L92.249 184L73.1543 163.148L46.209 171.793L40.0938 144.169L12.4473 138.207L20.958 111.233L0 92.2422L20.8555 73.1387L12.2002 46.207L39.8174 40.0869L45.7861 12.4502L72.7627 20.9629L91.7637 0L110.861 20.8535ZM91.9707 28.3037C56.807 28.3038 28.2021 56.9178 28.2021 92.0615C28.2024 127.225 56.8071 155.837 91.9707 155.837C127.123 155.837 155.721 127.225 155.722 92.0615C155.722 56.9178 127.123 28.3037 91.9707 28.3037ZM51.7695 51.7783C73.9628 29.583 110.062 29.5828 132.248 51.7715C154.417 73.9469 154.427 110.048 132.236 132.236C110.059 154.416 73.9622 154.416 51.7734 132.234C29.5893 110.048 29.5897 73.9537 51.7695 51.7783Z" fill="#F05514"/>
</svg>
